<?xml version="1.0" encoding="utf-8" standalone="no"?>
<!DOCTYPE svg PUBLIC "-//W3C//DTD SVG 1.1//EN"
  "http://www.w3.org/Graphics/SVG/1.1/DTD/svg11.dtd">
<svg height="432pt" version="1.1" viewBox="0 0 576 432" width="576pt" xmlns="http://www.w3.org/2000/svg" xmlns:xlink="http://www.w3.org/1999/xlink">
 <metadata>
  <rdf:RDF xmlns:cc="http://creativecommons.org/ns#" xmlns:dc="http://purl.org/dc/elements/1.1/" xmlns:rdf="http://www.w3.org/1999/02/22-rdf-syntax-ns#">
   <cc:Work>
    <dc:type rdf:resource="http://purl.org/dc/dcmitype/StillImage"/>
    <dc:date>2021-08-23T20:35:05.435904</dc:date>
    <dc:format>image/svg+xml</dc:format>
    <dc:creator>
     <cc:Agent>
      <dc:title>Matplotlib v3.4.2, https://matplotlib.org/</dc:title>
     </cc:Agent>
    </dc:creator>
   </cc:Work>
  </rdf:RDF>
 </metadata>
 <defs>
  <style type="text/css">*{stroke-linecap:butt;stroke-linejoin:round;}</style>
 </defs>
 <g id="figure_1">
  <g id="patch_1">
   <path d="M 0 432 
L 576 432 
L 576 0 
L 0 0 
z
" style="fill:#ffffff;"/>
  </g>
  <g id="axes_1">
   <g id="patch_2">
    <path d="M 72 203.04 
L 518.4 203.04 
L 518.4 51.84 
L 72 51.84 
z
" style="fill:#ffffff;"/>
   </g>
   <g id="matplotlib.axis_1">
    <g id="xtick_1">
     <g id="line2d_1">
      <defs>
       <path d="M 0 0 
L 0 3.5 
" id="m7220c53f16" style="stroke:#000000;stroke-width:0.8;"/>
      </defs>
      <g>
       <use style="stroke:#000000;stroke-width:0.8;" x="92.290909" xlink:href="#m7220c53f16" y="203.04"/>
      </g>
     </g>
     <g id="text_1">
      <!-- 0 -->
      <g transform="translate(89.109659 217.638437)scale(0.1 -0.1)">
       <defs>
        <path d="M 2034 4250 
Q 1547 4250 1301 3770 
Q 1056 3291 1056 2328 
Q 1056 1369 1301 889 
Q 1547 409 2034 409 
Q 2525 409 2770 889 
Q 3016 1369 3016 2328 
Q 3016 3291 2770 3770 
Q 2525 4250 2034 4250 
z
M 2034 4750 
Q 2819 4750 3233 4129 
Q 3647 3509 3647 2328 
Q 3647 1150 3233 529 
Q 2819 -91 2034 -91 
Q 1250 -91 836 529 
Q 422 1150 422 2328 
Q 422 3509 836 4129 
Q 1250 4750 2034 4750 
z
" id="DejaVuSans-30" transform="scale(0.015625)"/>
       </defs>
       <use xlink:href="#DejaVuSans-30"/>
      </g>
     </g>
    </g>
    <g id="xtick_2">
     <g id="line2d_2">
      <g>
       <use style="stroke:#000000;stroke-width:0.8;" x="159.927273" xlink:href="#m7220c53f16" y="203.04"/>
      </g>
     </g>
     <g id="text_2">
      <!-- 5 -->
      <g transform="translate(156.746023 217.638437)scale(0.1 -0.1)">
       <defs>
        <path d="M 691 4666 
L 3169 4666 
L 3169 4134 
L 1269 4134 
L 1269 2991 
Q 1406 3038 1543 3061 
Q 1681 3084 1819 3084 
Q 2600 3084 3056 2656 
Q 3513 2228 3513 1497 
Q 3513 744 3044 326 
Q 2575 -91 1722 -91 
Q 1428 -91 1123 -41 
Q 819 9 494 109 
L 494 744 
Q 775 591 1075 516 
Q 1375 441 1709 441 
Q 2250 441 2565 725 
Q 2881 1009 2881 1497 
Q 2881 1984 2565 2268 
Q 2250 2553 1709 2553 
Q 1456 2553 1204 2497 
Q 953 2441 691 2322 
L 691 4666 
z
" id="DejaVuSans-35" transform="scale(0.015625)"/>
       </defs>
       <use xlink:href="#DejaVuSans-35"/>
      </g>
     </g>
    </g>
    <g id="xtick_3">
     <g id="line2d_3">
      <g>
       <use style="stroke:#000000;stroke-width:0.8;" x="227.563636" xlink:href="#m7220c53f16" y="203.04"/>
      </g>
     </g>
     <g id="text_3">
      <!-- 10 -->
      <g transform="translate(221.201136 217.638437)scale(0.1 -0.1)">
       <defs>
        <path d="M 794 531 
L 1825 531 
L 1825 4091 
L 703 3866 
L 703 4441 
L 1819 4666 
L 2450 4666 
L 2450 531 
L 3481 531 
L 3481 0 
L 794 0 
L 794 531 
z
" id="DejaVuSans-31" transform="scale(0.015625)"/>
       </defs>
       <use xlink:href="#DejaVuSans-31"/>
       <use x="63.623047" xlink:href="#DejaVuSans-30"/>
      </g>
     </g>
    </g>
    <g id="xtick_4">
     <g id="line2d_4">
      <g>
       <use style="stroke:#000000;stroke-width:0.8;" x="295.2" xlink:href="#m7220c53f16" y="203.04"/>
      </g>
     </g>
     <g id="text_4">
      <!-- 15 -->
      <g transform="translate(288.8375 217.638437)scale(0.1 -0.1)">
       <use xlink:href="#DejaVuSans-31"/>
       <use x="63.623047" xlink:href="#DejaVuSans-35"/>
      </g>
     </g>
    </g>
    <g id="xtick_5">
     <g id="line2d_5">
      <g>
       <use style="stroke:#000000;stroke-width:0.8;" x="362.836364" xlink:href="#m7220c53f16" y="203.04"/>
      </g>
     </g>
     <g id="text_5">
      <!-- 20 -->
      <g transform="translate(356.473864 217.638437)scale(0.1 -0.1)">
       <defs>
        <path d="M 1228 531 
L 3431 531 
L 3431 0 
L 469 0 
L 469 531 
Q 828 903 1448 1529 
Q 2069 2156 2228 2338 
Q 2531 2678 2651 2914 
Q 2772 3150 2772 3378 
Q 2772 3750 2511 3984 
Q 2250 4219 1831 4219 
Q 1534 4219 1204 4116 
Q 875 4013 500 3803 
L 500 4441 
Q 881 4594 1212 4672 
Q 1544 4750 1819 4750 
Q 2544 4750 2975 4387 
Q 3406 4025 3406 3419 
Q 3406 3131 3298 2873 
Q 3191 2616 2906 2266 
Q 2828 2175 2409 1742 
Q 1991 1309 1228 531 
z
" id="DejaVuSans-32" transform="scale(0.015625)"/>
       </defs>
       <use xlink:href="#DejaVuSans-32"/>
       <use x="63.623047" xlink:href="#DejaVuSans-30"/>
      </g>
     </g>
    </g>
    <g id="xtick_6">
     <g id="line2d_6">
      <g>
       <use style="stroke:#000000;stroke-width:0.8;" x="430.472727" xlink:href="#m7220c53f16" y="203.04"/>
      </g>
     </g>
     <g id="text_6">
      <!-- 25 -->
      <g transform="translate(424.110227 217.638437)scale(0.1 -0.1)">
       <use xlink:href="#DejaVuSans-32"/>
       <use x="63.623047" xlink:href="#DejaVuSans-35"/>
      </g>
     </g>
    </g>
    <g id="xtick_7">
     <g id="line2d_7">
      <g>
       <use style="stroke:#000000;stroke-width:0.8;" x="498.109091" xlink:href="#m7220c53f16" y="203.04"/>
      </g>
     </g>
     <g id="text_7">
      <!-- 30 -->
      <g transform="translate(491.746591 217.638437)scale(0.1 -0.1)">
       <defs>
        <path d="M 2597 2516 
Q 3050 2419 3304 2112 
Q 3559 1806 3559 1356 
Q 3559 666 3084 287 
Q 2609 -91 1734 -91 
Q 1441 -91 1130 -33 
Q 819 25 488 141 
L 488 750 
Q 750 597 1062 519 
Q 1375 441 1716 441 
Q 2309 441 2620 675 
Q 2931 909 2931 1356 
Q 2931 1769 2642 2001 
Q 2353 2234 1838 2234 
L 1294 2234 
L 1294 2753 
L 1863 2753 
Q 2328 2753 2575 2939 
Q 2822 3125 2822 3475 
Q 2822 3834 2567 4026 
Q 2313 4219 1838 4219 
Q 1578 4219 1281 4162 
Q 984 4106 628 3988 
L 628 4550 
Q 988 4650 1302 4700 
Q 1616 4750 1894 4750 
Q 2613 4750 3031 4423 
Q 3450 4097 3450 3541 
Q 3450 3153 3228 2886 
Q 3006 2619 2597 2516 
z
" id="DejaVuSans-33" transform="scale(0.015625)"/>
       </defs>
       <use xlink:href="#DejaVuSans-33"/>
       <use x="63.623047" xlink:href="#DejaVuSans-30"/>
      </g>
     </g>
    </g>
    <g id="text_8">
     <!-- Time($s$) -->
     <g transform="translate(276.3 231.316562)scale(0.1 -0.1)">
      <defs>
       <path d="M -19 4666 
L 3928 4666 
L 3928 4134 
L 2272 4134 
L 2272 0 
L 1638 0 
L 1638 4134 
L -19 4134 
L -19 4666 
z
" id="DejaVuSans-54" transform="scale(0.015625)"/>
       <path d="M 603 3500 
L 1178 3500 
L 1178 0 
L 603 0 
L 603 3500 
z
M 603 4863 
L 1178 4863 
L 1178 4134 
L 603 4134 
L 603 4863 
z
" id="DejaVuSans-69" transform="scale(0.015625)"/>
       <path d="M 3328 2828 
Q 3544 3216 3844 3400 
Q 4144 3584 4550 3584 
Q 5097 3584 5394 3201 
Q 5691 2819 5691 2113 
L 5691 0 
L 5113 0 
L 5113 2094 
Q 5113 2597 4934 2840 
Q 4756 3084 4391 3084 
Q 3944 3084 3684 2787 
Q 3425 2491 3425 1978 
L 3425 0 
L 2847 0 
L 2847 2094 
Q 2847 2600 2669 2842 
Q 2491 3084 2119 3084 
Q 1678 3084 1418 2786 
Q 1159 2488 1159 1978 
L 1159 0 
L 581 0 
L 581 3500 
L 1159 3500 
L 1159 2956 
Q 1356 3278 1631 3431 
Q 1906 3584 2284 3584 
Q 2666 3584 2933 3390 
Q 3200 3197 3328 2828 
z
" id="DejaVuSans-6d" transform="scale(0.015625)"/>
       <path d="M 3597 1894 
L 3597 1613 
L 953 1613 
Q 991 1019 1311 708 
Q 1631 397 2203 397 
Q 2534 397 2845 478 
Q 3156 559 3463 722 
L 3463 178 
Q 3153 47 2828 -22 
Q 2503 -91 2169 -91 
Q 1331 -91 842 396 
Q 353 884 353 1716 
Q 353 2575 817 3079 
Q 1281 3584 2069 3584 
Q 2775 3584 3186 3129 
Q 3597 2675 3597 1894 
z
M 3022 2063 
Q 3016 2534 2758 2815 
Q 2500 3097 2075 3097 
Q 1594 3097 1305 2825 
Q 1016 2553 972 2059 
L 3022 2063 
z
" id="DejaVuSans-65" transform="scale(0.015625)"/>
       <path d="M 1984 4856 
Q 1566 4138 1362 3434 
Q 1159 2731 1159 2009 
Q 1159 1288 1364 580 
Q 1569 -128 1984 -844 
L 1484 -844 
Q 1016 -109 783 600 
Q 550 1309 550 2009 
Q 550 2706 781 3412 
Q 1013 4119 1484 4856 
L 1984 4856 
z
" id="DejaVuSans-28" transform="scale(0.015625)"/>
       <path d="M 3200 3397 
L 3091 2853 
Q 2863 2978 2609 3040 
Q 2356 3103 2088 3103 
Q 1634 3103 1373 2948 
Q 1113 2794 1113 2528 
Q 1113 2219 1719 2053 
Q 1766 2041 1788 2034 
L 1972 1978 
Q 2547 1819 2739 1644 
Q 2931 1469 2931 1166 
Q 2931 609 2489 259 
Q 2047 -91 1331 -91 
Q 1053 -91 747 -37 
Q 441 16 72 128 
L 184 722 
Q 500 559 806 475 
Q 1113 391 1394 391 
Q 1816 391 2080 572 
Q 2344 753 2344 1031 
Q 2344 1331 1650 1516 
L 1591 1531 
L 1394 1581 
Q 956 1697 753 1886 
Q 550 2075 550 2369 
Q 550 2928 970 3256 
Q 1391 3584 2113 3584 
Q 2397 3584 2667 3537 
Q 2938 3491 3200 3397 
z
" id="DejaVuSans-Oblique-73" transform="scale(0.015625)"/>
       <path d="M 513 4856 
L 1013 4856 
Q 1481 4119 1714 3412 
Q 1947 2706 1947 2009 
Q 1947 1309 1714 600 
Q 1481 -109 1013 -844 
L 513 -844 
Q 928 -128 1133 580 
Q 1338 1288 1338 2009 
Q 1338 2731 1133 3434 
Q 928 4138 513 4856 
z
" id="DejaVuSans-29" transform="scale(0.015625)"/>
      </defs>
      <use transform="translate(0 0.015625)" xlink:href="#DejaVuSans-54"/>
      <use transform="translate(61.083984 0.015625)" xlink:href="#DejaVuSans-69"/>
      <use transform="translate(88.867188 0.015625)" xlink:href="#DejaVuSans-6d"/>
      <use transform="translate(186.279297 0.015625)" xlink:href="#DejaVuSans-65"/>
      <use transform="translate(247.802734 0.015625)" xlink:href="#DejaVuSans-28"/>
      <use transform="translate(286.816406 0.015625)" xlink:href="#DejaVuSans-Oblique-73"/>
      <use transform="translate(338.916016 0.015625)" xlink:href="#DejaVuSans-29"/>
     </g>
    </g>
   </g>
   <g id="matplotlib.axis_2">
    <g id="ytick_1">
     <g id="line2d_8">
      <defs>
       <path d="M 0 0 
L -3.5 0 
" id="m6b129d5995" style="stroke:#000000;stroke-width:0.8;"/>
      </defs>
      <g>
       <use style="stroke:#000000;stroke-width:0.8;" x="72" xlink:href="#m6b129d5995" y="184.733529"/>
      </g>
     </g>
     <g id="text_9">
      <!-- −2 -->
      <g transform="translate(50.257812 188.532747)scale(0.1 -0.1)">
       <defs>
        <path d="M 678 2272 
L 4684 2272 
L 4684 1741 
L 678 1741 
L 678 2272 
z
" id="DejaVuSans-2212" transform="scale(0.015625)"/>
       </defs>
       <use xlink:href="#DejaVuSans-2212"/>
       <use x="83.789062" xlink:href="#DejaVuSans-32"/>
      </g>
     </g>
    </g>
    <g id="ytick_2">
     <g id="line2d_9">
      <g>
       <use style="stroke:#000000;stroke-width:0.8;" x="72" xlink:href="#m6b129d5995" y="161.995826"/>
      </g>
     </g>
     <g id="text_10">
      <!-- 0 -->
      <g transform="translate(58.6375 165.795045)scale(0.1 -0.1)">
       <use xlink:href="#DejaVuSans-30"/>
      </g>
     </g>
    </g>
    <g id="ytick_3">
     <g id="line2d_10">
      <g>
       <use style="stroke:#000000;stroke-width:0.8;" x="72" xlink:href="#m6b129d5995" y="139.258123"/>
      </g>
     </g>
     <g id="text_11">
      <!-- 2 -->
      <g transform="translate(58.6375 143.057342)scale(0.1 -0.1)">
       <use xlink:href="#DejaVuSans-32"/>
      </g>
     </g>
    </g>
    <g id="ytick_4">
     <g id="line2d_11">
      <g>
       <use style="stroke:#000000;stroke-width:0.8;" x="72" xlink:href="#m6b129d5995" y="116.52042"/>
      </g>
     </g>
     <g id="text_12">
      <!-- 4 -->
      <g transform="translate(58.6375 120.319639)scale(0.1 -0.1)">
       <defs>
        <path d="M 2419 4116 
L 825 1625 
L 2419 1625 
L 2419 4116 
z
M 2253 4666 
L 3047 4666 
L 3047 1625 
L 3713 1625 
L 3713 1100 
L 3047 1100 
L 3047 0 
L 2419 0 
L 2419 1100 
L 313 1100 
L 313 1709 
L 2253 4666 
z
" id="DejaVuSans-34" transform="scale(0.015625)"/>
       </defs>
       <use xlink:href="#DejaVuSans-34"/>
      </g>
     </g>
    </g>
    <g id="ytick_5">
     <g id="line2d_12">
      <g>
       <use style="stroke:#000000;stroke-width:0.8;" x="72" xlink:href="#m6b129d5995" y="93.782718"/>
      </g>
     </g>
     <g id="text_13">
      <!-- 6 -->
      <g transform="translate(58.6375 97.581937)scale(0.1 -0.1)">
       <defs>
        <path d="M 2113 2584 
Q 1688 2584 1439 2293 
Q 1191 2003 1191 1497 
Q 1191 994 1439 701 
Q 1688 409 2113 409 
Q 2538 409 2786 701 
Q 3034 994 3034 1497 
Q 3034 2003 2786 2293 
Q 2538 2584 2113 2584 
z
M 3366 4563 
L 3366 3988 
Q 3128 4100 2886 4159 
Q 2644 4219 2406 4219 
Q 1781 4219 1451 3797 
Q 1122 3375 1075 2522 
Q 1259 2794 1537 2939 
Q 1816 3084 2150 3084 
Q 2853 3084 3261 2657 
Q 3669 2231 3669 1497 
Q 3669 778 3244 343 
Q 2819 -91 2113 -91 
Q 1303 -91 875 529 
Q 447 1150 447 2328 
Q 447 3434 972 4092 
Q 1497 4750 2381 4750 
Q 2619 4750 2861 4703 
Q 3103 4656 3366 4563 
z
" id="DejaVuSans-36" transform="scale(0.015625)"/>
       </defs>
       <use xlink:href="#DejaVuSans-36"/>
      </g>
     </g>
    </g>
    <g id="ytick_6">
     <g id="line2d_13">
      <g>
       <use style="stroke:#000000;stroke-width:0.8;" x="72" xlink:href="#m6b129d5995" y="71.045015"/>
      </g>
     </g>
     <g id="text_14">
      <!-- 8 -->
      <g transform="translate(58.6375 74.844234)scale(0.1 -0.1)">
       <defs>
        <path d="M 2034 2216 
Q 1584 2216 1326 1975 
Q 1069 1734 1069 1313 
Q 1069 891 1326 650 
Q 1584 409 2034 409 
Q 2484 409 2743 651 
Q 3003 894 3003 1313 
Q 3003 1734 2745 1975 
Q 2488 2216 2034 2216 
z
M 1403 2484 
Q 997 2584 770 2862 
Q 544 3141 544 3541 
Q 544 4100 942 4425 
Q 1341 4750 2034 4750 
Q 2731 4750 3128 4425 
Q 3525 4100 3525 3541 
Q 3525 3141 3298 2862 
Q 3072 2584 2669 2484 
Q 3125 2378 3379 2068 
Q 3634 1759 3634 1313 
Q 3634 634 3220 271 
Q 2806 -91 2034 -91 
Q 1263 -91 848 271 
Q 434 634 434 1313 
Q 434 1759 690 2068 
Q 947 2378 1403 2484 
z
M 1172 3481 
Q 1172 3119 1398 2916 
Q 1625 2713 2034 2713 
Q 2441 2713 2670 2916 
Q 2900 3119 2900 3481 
Q 2900 3844 2670 4047 
Q 2441 4250 2034 4250 
Q 1625 4250 1398 4047 
Q 1172 3844 1172 3481 
z
" id="DejaVuSans-38" transform="scale(0.015625)"/>
       </defs>
       <use xlink:href="#DejaVuSans-38"/>
      </g>
     </g>
    </g>
    <g id="text_15">
     <!-- Position($m$) -->
     <g transform="translate(44.178125 155.89)rotate(-90)scale(0.1 -0.1)">
      <defs>
       <path d="M 1259 4147 
L 1259 2394 
L 2053 2394 
Q 2494 2394 2734 2622 
Q 2975 2850 2975 3272 
Q 2975 3691 2734 3919 
Q 2494 4147 2053 4147 
L 1259 4147 
z
M 628 4666 
L 2053 4666 
Q 2838 4666 3239 4311 
Q 3641 3956 3641 3272 
Q 3641 2581 3239 2228 
Q 2838 1875 2053 1875 
L 1259 1875 
L 1259 0 
L 628 0 
L 628 4666 
z
" id="DejaVuSans-50" transform="scale(0.015625)"/>
       <path d="M 1959 3097 
Q 1497 3097 1228 2736 
Q 959 2375 959 1747 
Q 959 1119 1226 758 
Q 1494 397 1959 397 
Q 2419 397 2687 759 
Q 2956 1122 2956 1747 
Q 2956 2369 2687 2733 
Q 2419 3097 1959 3097 
z
M 1959 3584 
Q 2709 3584 3137 3096 
Q 3566 2609 3566 1747 
Q 3566 888 3137 398 
Q 2709 -91 1959 -91 
Q 1206 -91 779 398 
Q 353 888 353 1747 
Q 353 2609 779 3096 
Q 1206 3584 1959 3584 
z
" id="DejaVuSans-6f" transform="scale(0.015625)"/>
       <path d="M 2834 3397 
L 2834 2853 
Q 2591 2978 2328 3040 
Q 2066 3103 1784 3103 
Q 1356 3103 1142 2972 
Q 928 2841 928 2578 
Q 928 2378 1081 2264 
Q 1234 2150 1697 2047 
L 1894 2003 
Q 2506 1872 2764 1633 
Q 3022 1394 3022 966 
Q 3022 478 2636 193 
Q 2250 -91 1575 -91 
Q 1294 -91 989 -36 
Q 684 19 347 128 
L 347 722 
Q 666 556 975 473 
Q 1284 391 1588 391 
Q 1994 391 2212 530 
Q 2431 669 2431 922 
Q 2431 1156 2273 1281 
Q 2116 1406 1581 1522 
L 1381 1569 
Q 847 1681 609 1914 
Q 372 2147 372 2553 
Q 372 3047 722 3315 
Q 1072 3584 1716 3584 
Q 2034 3584 2315 3537 
Q 2597 3491 2834 3397 
z
" id="DejaVuSans-73" transform="scale(0.015625)"/>
       <path d="M 1172 4494 
L 1172 3500 
L 2356 3500 
L 2356 3053 
L 1172 3053 
L 1172 1153 
Q 1172 725 1289 603 
Q 1406 481 1766 481 
L 2356 481 
L 2356 0 
L 1766 0 
Q 1100 0 847 248 
Q 594 497 594 1153 
L 594 3053 
L 172 3053 
L 172 3500 
L 594 3500 
L 594 4494 
L 1172 4494 
z
" id="DejaVuSans-74" transform="scale(0.015625)"/>
       <path d="M 3513 2113 
L 3513 0 
L 2938 0 
L 2938 2094 
Q 2938 2591 2744 2837 
Q 2550 3084 2163 3084 
Q 1697 3084 1428 2787 
Q 1159 2491 1159 1978 
L 1159 0 
L 581 0 
L 581 3500 
L 1159 3500 
L 1159 2956 
Q 1366 3272 1645 3428 
Q 1925 3584 2291 3584 
Q 2894 3584 3203 3211 
Q 3513 2838 3513 2113 
z
" id="DejaVuSans-6e" transform="scale(0.015625)"/>
       <path d="M 5747 2113 
L 5338 0 
L 4763 0 
L 5166 2094 
Q 5191 2228 5203 2325 
Q 5216 2422 5216 2491 
Q 5216 2772 5059 2928 
Q 4903 3084 4622 3084 
Q 4203 3084 3875 2770 
Q 3547 2456 3450 1953 
L 3066 0 
L 2491 0 
L 2900 2094 
Q 2925 2209 2937 2307 
Q 2950 2406 2950 2484 
Q 2950 2769 2794 2926 
Q 2638 3084 2363 3084 
Q 1938 3084 1609 2770 
Q 1281 2456 1184 1953 
L 800 0 
L 225 0 
L 909 3500 
L 1484 3500 
L 1375 2956 
Q 1609 3263 1923 3423 
Q 2238 3584 2597 3584 
Q 2978 3584 3223 3384 
Q 3469 3184 3519 2828 
Q 3781 3197 4126 3390 
Q 4472 3584 4856 3584 
Q 5306 3584 5551 3325 
Q 5797 3066 5797 2591 
Q 5797 2488 5784 2364 
Q 5772 2241 5747 2113 
z
" id="DejaVuSans-Oblique-6d" transform="scale(0.015625)"/>
      </defs>
      <use transform="translate(0 0.015625)" xlink:href="#DejaVuSans-50"/>
      <use transform="translate(60.302734 0.015625)" xlink:href="#DejaVuSans-6f"/>
      <use transform="translate(121.484375 0.015625)" xlink:href="#DejaVuSans-73"/>
      <use transform="translate(173.583984 0.015625)" xlink:href="#DejaVuSans-69"/>
      <use transform="translate(201.367188 0.015625)" xlink:href="#DejaVuSans-74"/>
      <use transform="translate(240.576172 0.015625)" xlink:href="#DejaVuSans-69"/>
      <use transform="translate(268.359375 0.015625)" xlink:href="#DejaVuSans-6f"/>
      <use transform="translate(329.541016 0.015625)" xlink:href="#DejaVuSans-6e"/>
      <use transform="translate(392.919922 0.015625)" xlink:href="#DejaVuSans-28"/>
      <use transform="translate(431.933594 0.015625)" xlink:href="#DejaVuSans-Oblique-6d"/>
      <use transform="translate(529.345703 0.015625)" xlink:href="#DejaVuSans-29"/>
     </g>
    </g>
   </g>
   <g id="line2d_14">
    <path clip-path="url(#p21f4cb3f29)" d="M 92.290909 161.995826 
L 105.818182 159.882413 
L 119.345455 154.389202 
L 132.872727 149.473098 
L 146.4 130.265829 
L 159.927273 102.863454 
L 173.454545 77.14217 
L 186.981818 82.068605 
L 200.509091 75.88662 
L 214.036364 66.923774 
L 227.563636 76.516228 
L 241.090909 77.135398 
L 254.618182 77.612561 
L 268.145455 89.232356 
L 281.672727 96.726133 
L 295.2 117.341822 
L 308.727273 132.213867 
L 322.254545 159.235984 
L 335.781818 172.178936 
L 349.309091 173.338256 
L 362.836364 186.20215 
L 376.363636 181.528578 
L 389.890909 178.966118 
L 403.418182 154.199671 
L 416.945455 130.896949 
L 430.472727 127.571326 
L 444 105.874185 
L 457.527273 91.456884 
L 471.054545 85.035645 
L 484.581818 70.152971 
L 498.109091 61.211377 
" style="fill:none;stroke:#1f77b4;stroke-linecap:square;stroke-width:1.5;"/>
    <defs>
     <path d="M 0 1.5 
C 0.397805 1.5 0.77937 1.341951 1.06066 1.06066 
C 1.341951 0.77937 1.5 0.397805 1.5 0 
C 1.5 -0.397805 1.341951 -0.77937 1.06066 -1.06066 
C 0.77937 -1.341951 0.397805 -1.5 0 -1.5 
C -0.397805 -1.5 -0.77937 -1.341951 -1.06066 -1.06066 
C -1.341951 -0.77937 -1.5 -0.397805 -1.5 0 
C -1.5 0.397805 -1.341951 0.77937 -1.06066 1.06066 
C -0.77937 1.341951 -0.397805 1.5 0 1.5 
z
" id="m5181a508da" style="stroke:#1f77b4;"/>
    </defs>
    <g clip-path="url(#p21f4cb3f29)">
     <use style="fill:#1f77b4;stroke:#1f77b4;" x="92.290909" xlink:href="#m5181a508da" y="161.995826"/>
     <use style="fill:#1f77b4;stroke:#1f77b4;" x="105.818182" xlink:href="#m5181a508da" y="159.882413"/>
     <use style="fill:#1f77b4;stroke:#1f77b4;" x="119.345455" xlink:href="#m5181a508da" y="154.389202"/>
     <use style="fill:#1f77b4;stroke:#1f77b4;" x="132.872727" xlink:href="#m5181a508da" y="149.473098"/>
     <use style="fill:#1f77b4;stroke:#1f77b4;" x="146.4" xlink:href="#m5181a508da" y="130.265829"/>
     <use style="fill:#1f77b4;stroke:#1f77b4;" x="159.927273" xlink:href="#m5181a508da" y="102.863454"/>
     <use style="fill:#1f77b4;stroke:#1f77b4;" x="173.454545" xlink:href="#m5181a508da" y="77.14217"/>
     <use style="fill:#1f77b4;stroke:#1f77b4;" x="186.981818" xlink:href="#m5181a508da" y="82.068605"/>
     <use style="fill:#1f77b4;stroke:#1f77b4;" x="200.509091" xlink:href="#m5181a508da" y="75.88662"/>
     <use style="fill:#1f77b4;stroke:#1f77b4;" x="214.036364" xlink:href="#m5181a508da" y="66.923774"/>
     <use style="fill:#1f77b4;stroke:#1f77b4;" x="227.563636" xlink:href="#m5181a508da" y="76.516228"/>
     <use style="fill:#1f77b4;stroke:#1f77b4;" x="241.090909" xlink:href="#m5181a508da" y="77.135398"/>
     <use style="fill:#1f77b4;stroke:#1f77b4;" x="254.618182" xlink:href="#m5181a508da" y="77.612561"/>
     <use style="fill:#1f77b4;stroke:#1f77b4;" x="268.145455" xlink:href="#m5181a508da" y="89.232356"/>
     <use style="fill:#1f77b4;stroke:#1f77b4;" x="281.672727" xlink:href="#m5181a508da" y="96.726133"/>
     <use style="fill:#1f77b4;stroke:#1f77b4;" x="295.2" xlink:href="#m5181a508da" y="117.341822"/>
     <use style="fill:#1f77b4;stroke:#1f77b4;" x="308.727273" xlink:href="#m5181a508da" y="132.213867"/>
     <use style="fill:#1f77b4;stroke:#1f77b4;" x="322.254545" xlink:href="#m5181a508da" y="159.235984"/>
     <use style="fill:#1f77b4;stroke:#1f77b4;" x="335.781818" xlink:href="#m5181a508da" y="172.178936"/>
     <use style="fill:#1f77b4;stroke:#1f77b4;" x="349.309091" xlink:href="#m5181a508da" y="173.338256"/>
     <use style="fill:#1f77b4;stroke:#1f77b4;" x="362.836364" xlink:href="#m5181a508da" y="186.20215"/>
     <use style="fill:#1f77b4;stroke:#1f77b4;" x="376.363636" xlink:href="#m5181a508da" y="181.528578"/>
     <use style="fill:#1f77b4;stroke:#1f77b4;" x="389.890909" xlink:href="#m5181a508da" y="178.966118"/>
     <use style="fill:#1f77b4;stroke:#1f77b4;" x="403.418182" xlink:href="#m5181a508da" y="154.199671"/>
     <use style="fill:#1f77b4;stroke:#1f77b4;" x="416.945455" xlink:href="#m5181a508da" y="130.896949"/>
     <use style="fill:#1f77b4;stroke:#1f77b4;" x="430.472727" xlink:href="#m5181a508da" y="127.571326"/>
     <use style="fill:#1f77b4;stroke:#1f77b4;" x="444" xlink:href="#m5181a508da" y="105.874185"/>
     <use style="fill:#1f77b4;stroke:#1f77b4;" x="457.527273" xlink:href="#m5181a508da" y="91.456884"/>
     <use style="fill:#1f77b4;stroke:#1f77b4;" x="471.054545" xlink:href="#m5181a508da" y="85.035645"/>
     <use style="fill:#1f77b4;stroke:#1f77b4;" x="484.581818" xlink:href="#m5181a508da" y="70.152971"/>
     <use style="fill:#1f77b4;stroke:#1f77b4;" x="498.109091" xlink:href="#m5181a508da" y="61.211377"/>
    </g>
   </g>
   <g id="line2d_15">
    <path clip-path="url(#p21f4cb3f29)" d="M 105.818182 151.511233 
L 119.345455 163.532402 
L 132.872727 153.14345 
L 146.4 122.443275 
L 159.927273 105.612767 
L 173.454545 66.765123 
L 186.981818 83.006268 
L 200.509091 71.165574 
L 214.036364 77.486041 
L 227.563636 81.897184 
L 241.090909 61.216675 
L 254.618182 80.593019 
L 268.145455 88.101601 
L 281.672727 87.059786 
L 295.2 112.0863 
L 308.727273 131.85383 
L 322.254545 167.273235 
L 335.781818 163.824751 
L 349.309091 177.492183 
L 362.836364 196.167273 
L 376.363636 196.087846 
L 389.890909 176.450356 
L 403.418182 144.455066 
L 416.945455 120.947955 
L 430.472727 126.571865 
L 444 101.782386 
L 457.527273 94.92324 
L 471.054545 88.68802 
L 484.581818 75.041607 
L 498.109091 58.712727 
" style="fill:none;stroke:#ff7f0e;stroke-linecap:square;stroke-width:1.5;"/>
    <defs>
     <path d="M 0 1.5 
C 0.397805 1.5 0.77937 1.341951 1.06066 1.06066 
C 1.341951 0.77937 1.5 0.397805 1.5 0 
C 1.5 -0.397805 1.341951 -0.77937 1.06066 -1.06066 
C 0.77937 -1.341951 0.397805 -1.5 0 -1.5 
C -0.397805 -1.5 -0.77937 -1.341951 -1.06066 -1.06066 
C -1.341951 -0.77937 -1.5 -0.397805 -1.5 0 
C -1.5 0.397805 -1.341951 0.77937 -1.06066 1.06066 
C -0.77937 1.341951 -0.397805 1.5 0 1.5 
z
" id="meaa14907c0" style="stroke:#ff7f0e;"/>
    </defs>
    <g clip-path="url(#p21f4cb3f29)">
     <use style="fill:#ff7f0e;stroke:#ff7f0e;" x="105.818182" xlink:href="#meaa14907c0" y="151.511233"/>
     <use style="fill:#ff7f0e;stroke:#ff7f0e;" x="119.345455" xlink:href="#meaa14907c0" y="163.532402"/>
     <use style="fill:#ff7f0e;stroke:#ff7f0e;" x="132.872727" xlink:href="#meaa14907c0" y="153.14345"/>
     <use style="fill:#ff7f0e;stroke:#ff7f0e;" x="146.4" xlink:href="#meaa14907c0" y="122.443275"/>
     <use style="fill:#ff7f0e;stroke:#ff7f0e;" x="159.927273" xlink:href="#meaa14907c0" y="105.612767"/>
     <use style="fill:#ff7f0e;stroke:#ff7f0e;" x="173.454545" xlink:href="#meaa14907c0" y="66.765123"/>
     <use style="fill:#ff7f0e;stroke:#ff7f0e;" x="186.981818" xlink:href="#meaa14907c0" y="83.006268"/>
     <use style="fill:#ff7f0e;stroke:#ff7f0e;" x="200.509091" xlink:href="#meaa14907c0" y="71.165574"/>
     <use style="fill:#ff7f0e;stroke:#ff7f0e;" x="214.036364" xlink:href="#meaa14907c0" y="77.486041"/>
     <use style="fill:#ff7f0e;stroke:#ff7f0e;" x="227.563636" xlink:href="#meaa14907c0" y="81.897184"/>
     <use style="fill:#ff7f0e;stroke:#ff7f0e;" x="241.090909" xlink:href="#meaa14907c0" y="61.216675"/>
     <use style="fill:#ff7f0e;stroke:#ff7f0e;" x="254.618182" xlink:href="#meaa14907c0" y="80.593019"/>
     <use style="fill:#ff7f0e;stroke:#ff7f0e;" x="268.145455" xlink:href="#meaa14907c0" y="88.101601"/>
     <use style="fill:#ff7f0e;stroke:#ff7f0e;" x="281.672727" xlink:href="#meaa14907c0" y="87.059786"/>
     <use style="fill:#ff7f0e;stroke:#ff7f0e;" x="295.2" xlink:href="#meaa14907c0" y="112.0863"/>
     <use style="fill:#ff7f0e;stroke:#ff7f0e;" x="308.727273" xlink:href="#meaa14907c0" y="131.85383"/>
     <use style="fill:#ff7f0e;stroke:#ff7f0e;" x="322.254545" xlink:href="#meaa14907c0" y="167.273235"/>
     <use style="fill:#ff7f0e;stroke:#ff7f0e;" x="335.781818" xlink:href="#meaa14907c0" y="163.824751"/>
     <use style="fill:#ff7f0e;stroke:#ff7f0e;" x="349.309091" xlink:href="#meaa14907c0" y="177.492183"/>
     <use style="fill:#ff7f0e;stroke:#ff7f0e;" x="362.836364" xlink:href="#meaa14907c0" y="196.167273"/>
     <use style="fill:#ff7f0e;stroke:#ff7f0e;" x="376.363636" xlink:href="#meaa14907c0" y="196.087846"/>
     <use style="fill:#ff7f0e;stroke:#ff7f0e;" x="389.890909" xlink:href="#meaa14907c0" y="176.450356"/>
     <use style="fill:#ff7f0e;stroke:#ff7f0e;" x="403.418182" xlink:href="#meaa14907c0" y="144.455066"/>
     <use style="fill:#ff7f0e;stroke:#ff7f0e;" x="416.945455" xlink:href="#meaa14907c0" y="120.947955"/>
     <use style="fill:#ff7f0e;stroke:#ff7f0e;" x="430.472727" xlink:href="#meaa14907c0" y="126.571865"/>
     <use style="fill:#ff7f0e;stroke:#ff7f0e;" x="444" xlink:href="#meaa14907c0" y="101.782386"/>
     <use style="fill:#ff7f0e;stroke:#ff7f0e;" x="457.527273" xlink:href="#meaa14907c0" y="94.92324"/>
     <use style="fill:#ff7f0e;stroke:#ff7f0e;" x="471.054545" xlink:href="#meaa14907c0" y="88.68802"/>
     <use style="fill:#ff7f0e;stroke:#ff7f0e;" x="484.581818" xlink:href="#meaa14907c0" y="75.041607"/>
     <use style="fill:#ff7f0e;stroke:#ff7f0e;" x="498.109091" xlink:href="#meaa14907c0" y="58.712727"/>
    </g>
   </g>
   <g id="line2d_16">
    <path clip-path="url(#p21f4cb3f29)" d="M 105.818182 150.626975 
L 119.345455 147.537483 
L 132.872727 148.750923 
L 146.4 142.049734 
L 159.927273 110.078267 
L 173.454545 80.773125 
L 186.981818 65.872068 
L 200.509091 73.108365 
L 214.036364 60.330084 
L 227.563636 70.199138 
L 241.090909 84.951051 
L 254.618182 76.538381 
L 268.145455 85.863604 
L 281.672727 92.51273 
L 295.2 110.791905 
L 308.727273 128.321054 
L 322.254545 156.016811 
L 335.781818 180.492026 
L 349.309091 165.923955 
L 362.836364 161.339369 
L 376.363636 167.566501 
L 389.890909 184.720857 
L 403.418182 158.667938 
L 416.945455 129.790378 
L 430.472727 110.328497 
L 444 110.76831 
L 457.527273 94.695748 
L 471.054545 81.360842 
L 484.581818 86.97435 
L 498.109091 73.174576 
" style="fill:none;stroke:#2ca02c;stroke-linecap:square;stroke-width:1.5;"/>
    <defs>
     <path d="M 0 1.5 
C 0.397805 1.5 0.77937 1.341951 1.06066 1.06066 
C 1.341951 0.77937 1.5 0.397805 1.5 0 
C 1.5 -0.397805 1.341951 -0.77937 1.06066 -1.06066 
C 0.77937 -1.341951 0.397805 -1.5 0 -1.5 
C -0.397805 -1.5 -0.77937 -1.341951 -1.06066 -1.06066 
C -1.341951 -0.77937 -1.5 -0.397805 -1.5 0 
C -1.5 0.397805 -1.341951 0.77937 -1.06066 1.06066 
C -0.77937 1.341951 -0.397805 1.5 0 1.5 
z
" id="mf4f3a7a0fe" style="stroke:#2ca02c;"/>
    </defs>
    <g clip-path="url(#p21f4cb3f29)">
     <use style="fill:#2ca02c;stroke:#2ca02c;" x="105.818182" xlink:href="#mf4f3a7a0fe" y="150.626975"/>
     <use style="fill:#2ca02c;stroke:#2ca02c;" x="119.345455" xlink:href="#mf4f3a7a0fe" y="147.537483"/>
     <use style="fill:#2ca02c;stroke:#2ca02c;" x="132.872727" xlink:href="#mf4f3a7a0fe" y="148.750923"/>
     <use style="fill:#2ca02c;stroke:#2ca02c;" x="146.4" xlink:href="#mf4f3a7a0fe" y="142.049734"/>
     <use style="fill:#2ca02c;stroke:#2ca02c;" x="159.927273" xlink:href="#mf4f3a7a0fe" y="110.078267"/>
     <use style="fill:#2ca02c;stroke:#2ca02c;" x="173.454545" xlink:href="#mf4f3a7a0fe" y="80.773125"/>
     <use style="fill:#2ca02c;stroke:#2ca02c;" x="186.981818" xlink:href="#mf4f3a7a0fe" y="65.872068"/>
     <use style="fill:#2ca02c;stroke:#2ca02c;" x="200.509091" xlink:href="#mf4f3a7a0fe" y="73.108365"/>
     <use style="fill:#2ca02c;stroke:#2ca02c;" x="214.036364" xlink:href="#mf4f3a7a0fe" y="60.330084"/>
     <use style="fill:#2ca02c;stroke:#2ca02c;" x="227.563636" xlink:href="#mf4f3a7a0fe" y="70.199138"/>
     <use style="fill:#2ca02c;stroke:#2ca02c;" x="241.090909" xlink:href="#mf4f3a7a0fe" y="84.951051"/>
     <use style="fill:#2ca02c;stroke:#2ca02c;" x="254.618182" xlink:href="#mf4f3a7a0fe" y="76.538381"/>
     <use style="fill:#2ca02c;stroke:#2ca02c;" x="268.145455" xlink:href="#mf4f3a7a0fe" y="85.863604"/>
     <use style="fill:#2ca02c;stroke:#2ca02c;" x="281.672727" xlink:href="#mf4f3a7a0fe" y="92.51273"/>
     <use style="fill:#2ca02c;stroke:#2ca02c;" x="295.2" xlink:href="#mf4f3a7a0fe" y="110.791905"/>
     <use style="fill:#2ca02c;stroke:#2ca02c;" x="308.727273" xlink:href="#mf4f3a7a0fe" y="128.321054"/>
     <use style="fill:#2ca02c;stroke:#2ca02c;" x="322.254545" xlink:href="#mf4f3a7a0fe" y="156.016811"/>
     <use style="fill:#2ca02c;stroke:#2ca02c;" x="335.781818" xlink:href="#mf4f3a7a0fe" y="180.492026"/>
     <use style="fill:#2ca02c;stroke:#2ca02c;" x="349.309091" xlink:href="#mf4f3a7a0fe" y="165.923955"/>
     <use style="fill:#2ca02c;stroke:#2ca02c;" x="362.836364" xlink:href="#mf4f3a7a0fe" y="161.339369"/>
     <use style="fill:#2ca02c;stroke:#2ca02c;" x="376.363636" xlink:href="#mf4f3a7a0fe" y="167.566501"/>
     <use style="fill:#2ca02c;stroke:#2ca02c;" x="389.890909" xlink:href="#mf4f3a7a0fe" y="184.720857"/>
     <use style="fill:#2ca02c;stroke:#2ca02c;" x="403.418182" xlink:href="#mf4f3a7a0fe" y="158.667938"/>
     <use style="fill:#2ca02c;stroke:#2ca02c;" x="416.945455" xlink:href="#mf4f3a7a0fe" y="129.790378"/>
     <use style="fill:#2ca02c;stroke:#2ca02c;" x="430.472727" xlink:href="#mf4f3a7a0fe" y="110.328497"/>
     <use style="fill:#2ca02c;stroke:#2ca02c;" x="444" xlink:href="#mf4f3a7a0fe" y="110.76831"/>
     <use style="fill:#2ca02c;stroke:#2ca02c;" x="457.527273" xlink:href="#mf4f3a7a0fe" y="94.695748"/>
     <use style="fill:#2ca02c;stroke:#2ca02c;" x="471.054545" xlink:href="#mf4f3a7a0fe" y="81.360842"/>
     <use style="fill:#2ca02c;stroke:#2ca02c;" x="484.581818" xlink:href="#mf4f3a7a0fe" y="86.97435"/>
     <use style="fill:#2ca02c;stroke:#2ca02c;" x="498.109091" xlink:href="#mf4f3a7a0fe" y="73.174576"/>
    </g>
   </g>
   <g id="line2d_17">
    <path clip-path="url(#p21f4cb3f29)" d="M 92.290909 161.995826 
L 105.818182 152.269822 
L 119.345455 158.070282 
L 132.872727 151.719278 
L 146.4 127.586881 
L 159.927273 105.994475 
L 173.454545 73.53877 
L 186.981818 77.963915 
L 200.509091 71.002965 
L 214.036364 73.099412 
L 227.563636 79.335581 
L 241.090909 68.980803 
L 254.618182 79.192554 
L 268.145455 87.211068 
L 281.672727 90.752276 
L 295.2 111.276957 
L 308.727273 131.707108 
L 322.254545 162.826621 
L 335.781818 166.640027 
L 349.309091 172.446581 
L 362.836364 184.39119 
L 376.363636 188.774992 
L 389.890909 177.139938 
L 403.418182 148.868231 
L 416.945455 124.411041 
L 430.472727 121.838107 
L 444 104.758242 
L 457.527273 94.447434 
L 471.054545 87.98407 
L 484.581818 78.269171 
L 498.109091 64.771729 
" style="fill:none;stroke:#d62728;stroke-linecap:square;stroke-width:1.5;"/>
    <defs>
     <path d="M 0 1.5 
C 0.397805 1.5 0.77937 1.341951 1.06066 1.06066 
C 1.341951 0.77937 1.5 0.397805 1.5 0 
C 1.5 -0.397805 1.341951 -0.77937 1.06066 -1.06066 
C 0.77937 -1.341951 0.397805 -1.5 0 -1.5 
C -0.397805 -1.5 -0.77937 -1.341951 -1.06066 -1.06066 
C -1.341951 -0.77937 -1.5 -0.397805 -1.5 0 
C -1.5 0.397805 -1.341951 0.77937 -1.06066 1.06066 
C -0.77937 1.341951 -0.397805 1.5 0 1.5 
z
" id="m16f20d5696" style="stroke:#d62728;"/>
    </defs>
    <g clip-path="url(#p21f4cb3f29)">
     <use style="fill:#d62728;stroke:#d62728;" x="92.290909" xlink:href="#m16f20d5696" y="161.995826"/>
     <use style="fill:#d62728;stroke:#d62728;" x="105.818182" xlink:href="#m16f20d5696" y="152.269822"/>
     <use style="fill:#d62728;stroke:#d62728;" x="119.345455" xlink:href="#m16f20d5696" y="158.070282"/>
     <use style="fill:#d62728;stroke:#d62728;" x="132.872727" xlink:href="#m16f20d5696" y="151.719278"/>
     <use style="fill:#d62728;stroke:#d62728;" x="146.4" xlink:href="#m16f20d5696" y="127.586881"/>
     <use style="fill:#d62728;stroke:#d62728;" x="159.927273" xlink:href="#m16f20d5696" y="105.994475"/>
     <use style="fill:#d62728;stroke:#d62728;" x="173.454545" xlink:href="#m16f20d5696" y="73.53877"/>
     <use style="fill:#d62728;stroke:#d62728;" x="186.981818" xlink:href="#m16f20d5696" y="77.963915"/>
     <use style="fill:#d62728;stroke:#d62728;" x="200.509091" xlink:href="#m16f20d5696" y="71.002965"/>
     <use style="fill:#d62728;stroke:#d62728;" x="214.036364" xlink:href="#m16f20d5696" y="73.099412"/>
     <use style="fill:#d62728;stroke:#d62728;" x="227.563636" xlink:href="#m16f20d5696" y="79.335581"/>
     <use style="fill:#d62728;stroke:#d62728;" x="241.090909" xlink:href="#m16f20d5696" y="68.980803"/>
     <use style="fill:#d62728;stroke:#d62728;" x="254.618182" xlink:href="#m16f20d5696" y="79.192554"/>
     <use style="fill:#d62728;stroke:#d62728;" x="268.145455" xlink:href="#m16f20d5696" y="87.211068"/>
     <use style="fill:#d62728;stroke:#d62728;" x="281.672727" xlink:href="#m16f20d5696" y="90.752276"/>
     <use style="fill:#d62728;stroke:#d62728;" x="295.2" xlink:href="#m16f20d5696" y="111.276957"/>
     <use style="fill:#d62728;stroke:#d62728;" x="308.727273" xlink:href="#m16f20d5696" y="131.707108"/>
     <use style="fill:#d62728;stroke:#d62728;" x="322.254545" xlink:href="#m16f20d5696" y="162.826621"/>
     <use style="fill:#d62728;stroke:#d62728;" x="335.781818" xlink:href="#m16f20d5696" y="166.640027"/>
     <use style="fill:#d62728;stroke:#d62728;" x="349.309091" xlink:href="#m16f20d5696" y="172.446581"/>
     <use style="fill:#d62728;stroke:#d62728;" x="362.836364" xlink:href="#m16f20d5696" y="184.39119"/>
     <use style="fill:#d62728;stroke:#d62728;" x="376.363636" xlink:href="#m16f20d5696" y="188.774992"/>
     <use style="fill:#d62728;stroke:#d62728;" x="389.890909" xlink:href="#m16f20d5696" y="177.139938"/>
     <use style="fill:#d62728;stroke:#d62728;" x="403.418182" xlink:href="#m16f20d5696" y="148.868231"/>
     <use style="fill:#d62728;stroke:#d62728;" x="416.945455" xlink:href="#m16f20d5696" y="124.411041"/>
     <use style="fill:#d62728;stroke:#d62728;" x="430.472727" xlink:href="#m16f20d5696" y="121.838107"/>
     <use style="fill:#d62728;stroke:#d62728;" x="444" xlink:href="#m16f20d5696" y="104.758242"/>
     <use style="fill:#d62728;stroke:#d62728;" x="457.527273" xlink:href="#m16f20d5696" y="94.447434"/>
     <use style="fill:#d62728;stroke:#d62728;" x="471.054545" xlink:href="#m16f20d5696" y="87.98407"/>
     <use style="fill:#d62728;stroke:#d62728;" x="484.581818" xlink:href="#m16f20d5696" y="78.269171"/>
     <use style="fill:#d62728;stroke:#d62728;" x="498.109091" xlink:href="#m16f20d5696" y="64.771729"/>
    </g>
   </g>
   <g id="patch_3">
    <path d="M 72 203.04 
L 72 51.84 
" style="fill:none;stroke:#000000;stroke-linecap:square;stroke-linejoin:miter;stroke-width:0.8;"/>
   </g>
   <g id="patch_4">
    <path d="M 518.4 203.04 
L 518.4 51.84 
" style="fill:none;stroke:#000000;stroke-linecap:square;stroke-linejoin:miter;stroke-width:0.8;"/>
   </g>
   <g id="patch_5">
    <path d="M 72 203.04 
L 518.4 203.04 
" style="fill:none;stroke:#000000;stroke-linecap:square;stroke-linejoin:miter;stroke-width:0.8;"/>
   </g>
   <g id="patch_6">
    <path d="M 72 51.84 
L 518.4 51.84 
" style="fill:none;stroke:#000000;stroke-linecap:square;stroke-linejoin:miter;stroke-width:0.8;"/>
   </g>
   <g id="legend_1">
    <g id="patch_7">
     <path d="M 435.2125 198.04 
L 511.4 198.04 
Q 513.4 198.04 513.4 196.04 
L 513.4 138.3275 
Q 513.4 136.3275 511.4 136.3275 
L 435.2125 136.3275 
Q 433.2125 136.3275 433.2125 138.3275 
L 433.2125 196.04 
Q 433.2125 198.04 435.2125 198.04 
z
" style="fill:#ffffff;opacity:0.8;stroke:#cccccc;stroke-linejoin:miter;"/>
    </g>
    <g id="line2d_18">
     <path d="M 437.2125 144.425937 
L 457.2125 144.425937 
" style="fill:none;stroke:#1f77b4;stroke-linecap:square;stroke-width:1.5;"/>
    </g>
    <g id="line2d_19">
     <g>
      <use style="fill:#1f77b4;stroke:#1f77b4;" x="447.2125" xlink:href="#m5181a508da" y="144.425937"/>
     </g>
    </g>
    <g id="text_16">
     <!-- Real -->
     <g transform="translate(465.2125 147.925937)scale(0.1 -0.1)">
      <defs>
       <path d="M 2841 2188 
Q 3044 2119 3236 1894 
Q 3428 1669 3622 1275 
L 4263 0 
L 3584 0 
L 2988 1197 
Q 2756 1666 2539 1819 
Q 2322 1972 1947 1972 
L 1259 1972 
L 1259 0 
L 628 0 
L 628 4666 
L 2053 4666 
Q 2853 4666 3247 4331 
Q 3641 3997 3641 3322 
Q 3641 2881 3436 2590 
Q 3231 2300 2841 2188 
z
M 1259 4147 
L 1259 2491 
L 2053 2491 
Q 2509 2491 2742 2702 
Q 2975 2913 2975 3322 
Q 2975 3731 2742 3939 
Q 2509 4147 2053 4147 
L 1259 4147 
z
" id="DejaVuSans-52" transform="scale(0.015625)"/>
       <path d="M 2194 1759 
Q 1497 1759 1228 1600 
Q 959 1441 959 1056 
Q 959 750 1161 570 
Q 1363 391 1709 391 
Q 2188 391 2477 730 
Q 2766 1069 2766 1631 
L 2766 1759 
L 2194 1759 
z
M 3341 1997 
L 3341 0 
L 2766 0 
L 2766 531 
Q 2569 213 2275 61 
Q 1981 -91 1556 -91 
Q 1019 -91 701 211 
Q 384 513 384 1019 
Q 384 1609 779 1909 
Q 1175 2209 1959 2209 
L 2766 2209 
L 2766 2266 
Q 2766 2663 2505 2880 
Q 2244 3097 1772 3097 
Q 1472 3097 1187 3025 
Q 903 2953 641 2809 
L 641 3341 
Q 956 3463 1253 3523 
Q 1550 3584 1831 3584 
Q 2591 3584 2966 3190 
Q 3341 2797 3341 1997 
z
" id="DejaVuSans-61" transform="scale(0.015625)"/>
       <path d="M 603 4863 
L 1178 4863 
L 1178 0 
L 603 0 
L 603 4863 
z
" id="DejaVuSans-6c" transform="scale(0.015625)"/>
      </defs>
      <use xlink:href="#DejaVuSans-52"/>
      <use x="64.982422" xlink:href="#DejaVuSans-65"/>
      <use x="126.505859" xlink:href="#DejaVuSans-61"/>
      <use x="187.785156" xlink:href="#DejaVuSans-6c"/>
     </g>
    </g>
    <g id="line2d_20">
     <path d="M 437.2125 159.104062 
L 457.2125 159.104062 
" style="fill:none;stroke:#ff7f0e;stroke-linecap:square;stroke-width:1.5;"/>
    </g>
    <g id="line2d_21">
     <g>
      <use style="fill:#ff7f0e;stroke:#ff7f0e;" x="447.2125" xlink:href="#meaa14907c0" y="159.104062"/>
     </g>
    </g>
    <g id="text_17">
     <!-- Measure -->
     <g transform="translate(465.2125 162.604062)scale(0.1 -0.1)">
      <defs>
       <path d="M 628 4666 
L 1569 4666 
L 2759 1491 
L 3956 4666 
L 4897 4666 
L 4897 0 
L 4281 0 
L 4281 4097 
L 3078 897 
L 2444 897 
L 1241 4097 
L 1241 0 
L 628 0 
L 628 4666 
z
" id="DejaVuSans-4d" transform="scale(0.015625)"/>
       <path d="M 544 1381 
L 544 3500 
L 1119 3500 
L 1119 1403 
Q 1119 906 1312 657 
Q 1506 409 1894 409 
Q 2359 409 2629 706 
Q 2900 1003 2900 1516 
L 2900 3500 
L 3475 3500 
L 3475 0 
L 2900 0 
L 2900 538 
Q 2691 219 2414 64 
Q 2138 -91 1772 -91 
Q 1169 -91 856 284 
Q 544 659 544 1381 
z
M 1991 3584 
L 1991 3584 
z
" id="DejaVuSans-75" transform="scale(0.015625)"/>
       <path d="M 2631 2963 
Q 2534 3019 2420 3045 
Q 2306 3072 2169 3072 
Q 1681 3072 1420 2755 
Q 1159 2438 1159 1844 
L 1159 0 
L 581 0 
L 581 3500 
L 1159 3500 
L 1159 2956 
Q 1341 3275 1631 3429 
Q 1922 3584 2338 3584 
Q 2397 3584 2469 3576 
Q 2541 3569 2628 3553 
L 2631 2963 
z
" id="DejaVuSans-72" transform="scale(0.015625)"/>
      </defs>
      <use xlink:href="#DejaVuSans-4d"/>
      <use x="86.279297" xlink:href="#DejaVuSans-65"/>
      <use x="147.802734" xlink:href="#DejaVuSans-61"/>
      <use x="209.082031" xlink:href="#DejaVuSans-73"/>
      <use x="261.181641" xlink:href="#DejaVuSans-75"/>
      <use x="324.560547" xlink:href="#DejaVuSans-72"/>
      <use x="363.423828" xlink:href="#DejaVuSans-65"/>
     </g>
    </g>
    <g id="line2d_22">
     <path d="M 437.2125 173.782187 
L 457.2125 173.782187 
" style="fill:none;stroke:#2ca02c;stroke-linecap:square;stroke-width:1.5;"/>
    </g>
    <g id="line2d_23">
     <g>
      <use style="fill:#2ca02c;stroke:#2ca02c;" x="447.2125" xlink:href="#mf4f3a7a0fe" y="173.782187"/>
     </g>
    </g>
    <g id="text_18">
     <!-- Prior -->
     <g transform="translate(465.2125 177.282187)scale(0.1 -0.1)">
      <use xlink:href="#DejaVuSans-50"/>
      <use x="58.552734" xlink:href="#DejaVuSans-72"/>
      <use x="99.666016" xlink:href="#DejaVuSans-69"/>
      <use x="127.449219" xlink:href="#DejaVuSans-6f"/>
      <use x="188.630859" xlink:href="#DejaVuSans-72"/>
     </g>
    </g>
    <g id="line2d_24">
     <path d="M 437.2125 188.460312 
L 457.2125 188.460312 
" style="fill:none;stroke:#d62728;stroke-linecap:square;stroke-width:1.5;"/>
    </g>
    <g id="line2d_25">
     <g>
      <use style="fill:#d62728;stroke:#d62728;" x="447.2125" xlink:href="#m16f20d5696" y="188.460312"/>
     </g>
    </g>
    <g id="text_19">
     <!-- Posterior -->
     <g transform="translate(465.2125 191.960312)scale(0.1 -0.1)">
      <use xlink:href="#DejaVuSans-50"/>
      <use x="56.677734" xlink:href="#DejaVuSans-6f"/>
      <use x="117.859375" xlink:href="#DejaVuSans-73"/>
      <use x="169.958984" xlink:href="#DejaVuSans-74"/>
      <use x="209.167969" xlink:href="#DejaVuSans-65"/>
      <use x="270.691406" xlink:href="#DejaVuSans-72"/>
      <use x="311.804688" xlink:href="#DejaVuSans-69"/>
      <use x="339.587891" xlink:href="#DejaVuSans-6f"/>
      <use x="400.769531" xlink:href="#DejaVuSans-72"/>
     </g>
    </g>
   </g>
  </g>
  <g id="axes_2">
   <g id="patch_8">
    <path d="M 72 384.48 
L 518.4 384.48 
L 518.4 233.28 
L 72 233.28 
z
" style="fill:#ffffff;"/>
   </g>
   <g id="matplotlib.axis_3">
    <g id="xtick_8">
     <g id="line2d_26">
      <g>
       <use style="stroke:#000000;stroke-width:0.8;" x="92.290909" xlink:href="#m7220c53f16" y="384.48"/>
      </g>
     </g>
     <g id="text_20">
      <!-- 0 -->
      <g transform="translate(89.109659 399.078438)scale(0.1 -0.1)">
       <use xlink:href="#DejaVuSans-30"/>
      </g>
     </g>
    </g>
    <g id="xtick_9">
     <g id="line2d_27">
      <g>
       <use style="stroke:#000000;stroke-width:0.8;" x="159.927273" xlink:href="#m7220c53f16" y="384.48"/>
      </g>
     </g>
     <g id="text_21">
      <!-- 5 -->
      <g transform="translate(156.746023 399.078438)scale(0.1 -0.1)">
       <use xlink:href="#DejaVuSans-35"/>
      </g>
     </g>
    </g>
    <g id="xtick_10">
     <g id="line2d_28">
      <g>
       <use style="stroke:#000000;stroke-width:0.8;" x="227.563636" xlink:href="#m7220c53f16" y="384.48"/>
      </g>
     </g>
     <g id="text_22">
      <!-- 10 -->
      <g transform="translate(221.201136 399.078438)scale(0.1 -0.1)">
       <use xlink:href="#DejaVuSans-31"/>
       <use x="63.623047" xlink:href="#DejaVuSans-30"/>
      </g>
     </g>
    </g>
    <g id="xtick_11">
     <g id="line2d_29">
      <g>
       <use style="stroke:#000000;stroke-width:0.8;" x="295.2" xlink:href="#m7220c53f16" y="384.48"/>
      </g>
     </g>
     <g id="text_23">
      <!-- 15 -->
      <g transform="translate(288.8375 399.078438)scale(0.1 -0.1)">
       <use xlink:href="#DejaVuSans-31"/>
       <use x="63.623047" xlink:href="#DejaVuSans-35"/>
      </g>
     </g>
    </g>
    <g id="xtick_12">
     <g id="line2d_30">
      <g>
       <use style="stroke:#000000;stroke-width:0.8;" x="362.836364" xlink:href="#m7220c53f16" y="384.48"/>
      </g>
     </g>
     <g id="text_24">
      <!-- 20 -->
      <g transform="translate(356.473864 399.078438)scale(0.1 -0.1)">
       <use xlink:href="#DejaVuSans-32"/>
       <use x="63.623047" xlink:href="#DejaVuSans-30"/>
      </g>
     </g>
    </g>
    <g id="xtick_13">
     <g id="line2d_31">
      <g>
       <use style="stroke:#000000;stroke-width:0.8;" x="430.472727" xlink:href="#m7220c53f16" y="384.48"/>
      </g>
     </g>
     <g id="text_25">
      <!-- 25 -->
      <g transform="translate(424.110227 399.078438)scale(0.1 -0.1)">
       <use xlink:href="#DejaVuSans-32"/>
       <use x="63.623047" xlink:href="#DejaVuSans-35"/>
      </g>
     </g>
    </g>
    <g id="xtick_14">
     <g id="line2d_32">
      <g>
       <use style="stroke:#000000;stroke-width:0.8;" x="498.109091" xlink:href="#m7220c53f16" y="384.48"/>
      </g>
     </g>
     <g id="text_26">
      <!-- 30 -->
      <g transform="translate(491.746591 399.078438)scale(0.1 -0.1)">
       <use xlink:href="#DejaVuSans-33"/>
       <use x="63.623047" xlink:href="#DejaVuSans-30"/>
      </g>
     </g>
    </g>
    <g id="text_27">
     <!-- Time($s$) -->
     <g transform="translate(276.3 412.756563)scale(0.1 -0.1)">
      <use transform="translate(0 0.015625)" xlink:href="#DejaVuSans-54"/>
      <use transform="translate(61.083984 0.015625)" xlink:href="#DejaVuSans-69"/>
      <use transform="translate(88.867188 0.015625)" xlink:href="#DejaVuSans-6d"/>
      <use transform="translate(186.279297 0.015625)" xlink:href="#DejaVuSans-65"/>
      <use transform="translate(247.802734 0.015625)" xlink:href="#DejaVuSans-28"/>
      <use transform="translate(286.816406 0.015625)" xlink:href="#DejaVuSans-Oblique-73"/>
      <use transform="translate(338.916016 0.015625)" xlink:href="#DejaVuSans-29"/>
     </g>
    </g>
   </g>
   <g id="matplotlib.axis_4">
    <g id="ytick_7">
     <g id="line2d_33">
      <g>
       <use style="stroke:#000000;stroke-width:0.8;" x="72" xlink:href="#m6b129d5995" y="359.260182"/>
      </g>
     </g>
     <g id="text_28">
      <!-- −2 -->
      <g transform="translate(50.257812 363.059401)scale(0.1 -0.1)">
       <use xlink:href="#DejaVuSans-2212"/>
       <use x="83.789062" xlink:href="#DejaVuSans-32"/>
      </g>
     </g>
    </g>
    <g id="ytick_8">
     <g id="line2d_34">
      <g>
       <use style="stroke:#000000;stroke-width:0.8;" x="72" xlink:href="#m6b129d5995" y="333.534416"/>
      </g>
     </g>
     <g id="text_29">
      <!-- −1 -->
      <g transform="translate(50.257812 337.333635)scale(0.1 -0.1)">
       <use xlink:href="#DejaVuSans-2212"/>
       <use x="83.789062" xlink:href="#DejaVuSans-31"/>
      </g>
     </g>
    </g>
    <g id="ytick_9">
     <g id="line2d_35">
      <g>
       <use style="stroke:#000000;stroke-width:0.8;" x="72" xlink:href="#m6b129d5995" y="307.80865"/>
      </g>
     </g>
     <g id="text_30">
      <!-- 0 -->
      <g transform="translate(58.6375 311.607869)scale(0.1 -0.1)">
       <use xlink:href="#DejaVuSans-30"/>
      </g>
     </g>
    </g>
    <g id="ytick_10">
     <g id="line2d_36">
      <g>
       <use style="stroke:#000000;stroke-width:0.8;" x="72" xlink:href="#m6b129d5995" y="282.082884"/>
      </g>
     </g>
     <g id="text_31">
      <!-- 1 -->
      <g transform="translate(58.6375 285.882103)scale(0.1 -0.1)">
       <use xlink:href="#DejaVuSans-31"/>
      </g>
     </g>
    </g>
    <g id="ytick_11">
     <g id="line2d_37">
      <g>
       <use style="stroke:#000000;stroke-width:0.8;" x="72" xlink:href="#m6b129d5995" y="256.357118"/>
      </g>
     </g>
     <g id="text_32">
      <!-- 2 -->
      <g transform="translate(58.6375 260.156337)scale(0.1 -0.1)">
       <use xlink:href="#DejaVuSans-32"/>
      </g>
     </g>
    </g>
    <g id="text_33">
     <!-- Velocity($m\cdot s^{-1}$) -->
     <g transform="translate(44.157812 349.33)rotate(-90)scale(0.1 -0.1)">
      <defs>
       <path d="M 1831 0 
L 50 4666 
L 709 4666 
L 2188 738 
L 3669 4666 
L 4325 4666 
L 2547 0 
L 1831 0 
z
" id="DejaVuSans-56" transform="scale(0.015625)"/>
       <path d="M 3122 3366 
L 3122 2828 
Q 2878 2963 2633 3030 
Q 2388 3097 2138 3097 
Q 1578 3097 1268 2742 
Q 959 2388 959 1747 
Q 959 1106 1268 751 
Q 1578 397 2138 397 
Q 2388 397 2633 464 
Q 2878 531 3122 666 
L 3122 134 
Q 2881 22 2623 -34 
Q 2366 -91 2075 -91 
Q 1284 -91 818 406 
Q 353 903 353 1747 
Q 353 2603 823 3093 
Q 1294 3584 2113 3584 
Q 2378 3584 2631 3529 
Q 2884 3475 3122 3366 
z
" id="DejaVuSans-63" transform="scale(0.015625)"/>
       <path d="M 2059 -325 
Q 1816 -950 1584 -1140 
Q 1353 -1331 966 -1331 
L 506 -1331 
L 506 -850 
L 844 -850 
Q 1081 -850 1212 -737 
Q 1344 -625 1503 -206 
L 1606 56 
L 191 3500 
L 800 3500 
L 1894 763 
L 2988 3500 
L 3597 3500 
L 2059 -325 
z
" id="DejaVuSans-79" transform="scale(0.015625)"/>
       <path d="M 684 2619 
L 1344 2619 
L 1344 1825 
L 684 1825 
L 684 2619 
z
" id="DejaVuSans-22c5" transform="scale(0.015625)"/>
      </defs>
      <use transform="translate(0 0.684375)" xlink:href="#DejaVuSans-56"/>
      <use transform="translate(68.408203 0.684375)" xlink:href="#DejaVuSans-65"/>
      <use transform="translate(129.931641 0.684375)" xlink:href="#DejaVuSans-6c"/>
      <use transform="translate(157.714844 0.684375)" xlink:href="#DejaVuSans-6f"/>
      <use transform="translate(218.896484 0.684375)" xlink:href="#DejaVuSans-63"/>
      <use transform="translate(273.876953 0.684375)" xlink:href="#DejaVuSans-69"/>
      <use transform="translate(301.660156 0.684375)" xlink:href="#DejaVuSans-74"/>
      <use transform="translate(340.869141 0.684375)" xlink:href="#DejaVuSans-79"/>
      <use transform="translate(400.048828 0.684375)" xlink:href="#DejaVuSans-28"/>
      <use transform="translate(439.0625 0.684375)" xlink:href="#DejaVuSans-Oblique-6d"/>
      <use transform="translate(555.957031 0.684375)" xlink:href="#DejaVuSans-22c5"/>
      <use transform="translate(607.226562 0.684375)" xlink:href="#DejaVuSans-Oblique-73"/>
      <use transform="translate(663.976068 38.965625)scale(0.7)" xlink:href="#DejaVuSans-2212"/>
      <use transform="translate(722.628411 38.965625)scale(0.7)" xlink:href="#DejaVuSans-31"/>
      <use transform="translate(769.898919 0.684375)" xlink:href="#DejaVuSans-29"/>
     </g>
    </g>
   </g>
   <g id="line2d_38">
    <path clip-path="url(#pa106cd7025)" d="M 92.290909 282.082884 
L 105.818182 292.008213 
L 119.345455 286.65264 
L 132.872727 269.08652 
L 146.4 260.05122 
L 159.927273 264.244961 
L 173.454545 309.242752 
L 186.981818 280.185103 
L 200.509091 288.181509 
L 214.036364 308.749127 
L 227.563636 312.489132 
L 241.090909 313.045101 
L 254.618182 317.304138 
L 268.145455 349.624385 
L 281.672727 359.646943 
L 295.2 349.697833 
L 308.727273 337.784767 
L 322.254545 336.353667 
L 335.781818 290.300398 
L 349.309091 295.65999 
L 362.836364 294.125438 
L 376.363636 287.36017 
L 389.890909 261.315932 
L 403.418182 290.09421 
L 416.945455 294.26558 
L 430.472727 285.25381 
L 444 268.209549 
L 457.527273 299.325448 
L 471.054545 298.695895 
L 484.581818 312.099736 
L 498.109091 331.431944 
" style="fill:none;stroke:#1f77b4;stroke-linecap:square;stroke-width:1.5;"/>
    <g clip-path="url(#pa106cd7025)">
     <use style="fill:#1f77b4;stroke:#1f77b4;" x="92.290909" xlink:href="#m5181a508da" y="282.082884"/>
     <use style="fill:#1f77b4;stroke:#1f77b4;" x="105.818182" xlink:href="#m5181a508da" y="292.008213"/>
     <use style="fill:#1f77b4;stroke:#1f77b4;" x="119.345455" xlink:href="#m5181a508da" y="286.65264"/>
     <use style="fill:#1f77b4;stroke:#1f77b4;" x="132.872727" xlink:href="#m5181a508da" y="269.08652"/>
     <use style="fill:#1f77b4;stroke:#1f77b4;" x="146.4" xlink:href="#m5181a508da" y="260.05122"/>
     <use style="fill:#1f77b4;stroke:#1f77b4;" x="159.927273" xlink:href="#m5181a508da" y="264.244961"/>
     <use style="fill:#1f77b4;stroke:#1f77b4;" x="173.454545" xlink:href="#m5181a508da" y="309.242752"/>
     <use style="fill:#1f77b4;stroke:#1f77b4;" x="186.981818" xlink:href="#m5181a508da" y="280.185103"/>
     <use style="fill:#1f77b4;stroke:#1f77b4;" x="200.509091" xlink:href="#m5181a508da" y="288.181509"/>
     <use style="fill:#1f77b4;stroke:#1f77b4;" x="214.036364" xlink:href="#m5181a508da" y="308.749127"/>
     <use style="fill:#1f77b4;stroke:#1f77b4;" x="227.563636" xlink:href="#m5181a508da" y="312.489132"/>
     <use style="fill:#1f77b4;stroke:#1f77b4;" x="241.090909" xlink:href="#m5181a508da" y="313.045101"/>
     <use style="fill:#1f77b4;stroke:#1f77b4;" x="254.618182" xlink:href="#m5181a508da" y="317.304138"/>
     <use style="fill:#1f77b4;stroke:#1f77b4;" x="268.145455" xlink:href="#m5181a508da" y="349.624385"/>
     <use style="fill:#1f77b4;stroke:#1f77b4;" x="281.672727" xlink:href="#m5181a508da" y="359.646943"/>
     <use style="fill:#1f77b4;stroke:#1f77b4;" x="295.2" xlink:href="#m5181a508da" y="349.697833"/>
     <use style="fill:#1f77b4;stroke:#1f77b4;" x="308.727273" xlink:href="#m5181a508da" y="337.784767"/>
     <use style="fill:#1f77b4;stroke:#1f77b4;" x="322.254545" xlink:href="#m5181a508da" y="336.353667"/>
     <use style="fill:#1f77b4;stroke:#1f77b4;" x="335.781818" xlink:href="#m5181a508da" y="290.300398"/>
     <use style="fill:#1f77b4;stroke:#1f77b4;" x="349.309091" xlink:href="#m5181a508da" y="295.65999"/>
     <use style="fill:#1f77b4;stroke:#1f77b4;" x="362.836364" xlink:href="#m5181a508da" y="294.125438"/>
     <use style="fill:#1f77b4;stroke:#1f77b4;" x="376.363636" xlink:href="#m5181a508da" y="287.36017"/>
     <use style="fill:#1f77b4;stroke:#1f77b4;" x="389.890909" xlink:href="#m5181a508da" y="261.315932"/>
     <use style="fill:#1f77b4;stroke:#1f77b4;" x="403.418182" xlink:href="#m5181a508da" y="290.09421"/>
     <use style="fill:#1f77b4;stroke:#1f77b4;" x="416.945455" xlink:href="#m5181a508da" y="294.26558"/>
     <use style="fill:#1f77b4;stroke:#1f77b4;" x="430.472727" xlink:href="#m5181a508da" y="285.25381"/>
     <use style="fill:#1f77b4;stroke:#1f77b4;" x="444" xlink:href="#m5181a508da" y="268.209549"/>
     <use style="fill:#1f77b4;stroke:#1f77b4;" x="457.527273" xlink:href="#m5181a508da" y="299.325448"/>
     <use style="fill:#1f77b4;stroke:#1f77b4;" x="471.054545" xlink:href="#m5181a508da" y="298.695895"/>
     <use style="fill:#1f77b4;stroke:#1f77b4;" x="484.581818" xlink:href="#m5181a508da" y="312.099736"/>
     <use style="fill:#1f77b4;stroke:#1f77b4;" x="498.109091" xlink:href="#m5181a508da" y="331.431944"/>
    </g>
   </g>
   <g id="line2d_39">
    <path clip-path="url(#pa106cd7025)" d="M 105.818182 303.250311 
L 119.345455 274.798467 
L 132.872727 284.048446 
L 146.4 261.992794 
L 159.927273 240.152727 
L 173.454545 321.856123 
L 186.981818 295.993114 
L 200.509091 275.243548 
L 214.036364 308.087984 
L 227.563636 330.156939 
L 241.090909 335.087875 
L 254.618182 320.307014 
L 268.145455 317.010183 
L 281.672727 377.607273 
L 295.2 341.350285 
L 308.727273 372.991998 
L 322.254545 334.099789 
L 335.781818 282.783065 
L 349.309091 263.100458 
L 362.836364 250.36529 
L 376.363636 309.775782 
L 389.890909 246.199894 
L 403.418182 267.996477 
L 416.945455 286.343862 
L 430.472727 282.512478 
L 444 289.313164 
L 457.527273 273.447911 
L 471.054545 321.996394 
L 484.581818 293.565945 
L 498.109091 343.051278 
" style="fill:none;stroke:#ff7f0e;stroke-linecap:square;stroke-width:1.5;"/>
    <g clip-path="url(#pa106cd7025)">
     <use style="fill:#ff7f0e;stroke:#ff7f0e;" x="105.818182" xlink:href="#meaa14907c0" y="303.250311"/>
     <use style="fill:#ff7f0e;stroke:#ff7f0e;" x="119.345455" xlink:href="#meaa14907c0" y="274.798467"/>
     <use style="fill:#ff7f0e;stroke:#ff7f0e;" x="132.872727" xlink:href="#meaa14907c0" y="284.048446"/>
     <use style="fill:#ff7f0e;stroke:#ff7f0e;" x="146.4" xlink:href="#meaa14907c0" y="261.992794"/>
     <use style="fill:#ff7f0e;stroke:#ff7f0e;" x="159.927273" xlink:href="#meaa14907c0" y="240.152727"/>
     <use style="fill:#ff7f0e;stroke:#ff7f0e;" x="173.454545" xlink:href="#meaa14907c0" y="321.856123"/>
     <use style="fill:#ff7f0e;stroke:#ff7f0e;" x="186.981818" xlink:href="#meaa14907c0" y="295.993114"/>
     <use style="fill:#ff7f0e;stroke:#ff7f0e;" x="200.509091" xlink:href="#meaa14907c0" y="275.243548"/>
     <use style="fill:#ff7f0e;stroke:#ff7f0e;" x="214.036364" xlink:href="#meaa14907c0" y="308.087984"/>
     <use style="fill:#ff7f0e;stroke:#ff7f0e;" x="227.563636" xlink:href="#meaa14907c0" y="330.156939"/>
     <use style="fill:#ff7f0e;stroke:#ff7f0e;" x="241.090909" xlink:href="#meaa14907c0" y="335.087875"/>
     <use style="fill:#ff7f0e;stroke:#ff7f0e;" x="254.618182" xlink:href="#meaa14907c0" y="320.307014"/>
     <use style="fill:#ff7f0e;stroke:#ff7f0e;" x="268.145455" xlink:href="#meaa14907c0" y="317.010183"/>
     <use style="fill:#ff7f0e;stroke:#ff7f0e;" x="281.672727" xlink:href="#meaa14907c0" y="377.607273"/>
     <use style="fill:#ff7f0e;stroke:#ff7f0e;" x="295.2" xlink:href="#meaa14907c0" y="341.350285"/>
     <use style="fill:#ff7f0e;stroke:#ff7f0e;" x="308.727273" xlink:href="#meaa14907c0" y="372.991998"/>
     <use style="fill:#ff7f0e;stroke:#ff7f0e;" x="322.254545" xlink:href="#meaa14907c0" y="334.099789"/>
     <use style="fill:#ff7f0e;stroke:#ff7f0e;" x="335.781818" xlink:href="#meaa14907c0" y="282.783065"/>
     <use style="fill:#ff7f0e;stroke:#ff7f0e;" x="349.309091" xlink:href="#meaa14907c0" y="263.100458"/>
     <use style="fill:#ff7f0e;stroke:#ff7f0e;" x="362.836364" xlink:href="#meaa14907c0" y="250.36529"/>
     <use style="fill:#ff7f0e;stroke:#ff7f0e;" x="376.363636" xlink:href="#meaa14907c0" y="309.775782"/>
     <use style="fill:#ff7f0e;stroke:#ff7f0e;" x="389.890909" xlink:href="#meaa14907c0" y="246.199894"/>
     <use style="fill:#ff7f0e;stroke:#ff7f0e;" x="403.418182" xlink:href="#meaa14907c0" y="267.996477"/>
     <use style="fill:#ff7f0e;stroke:#ff7f0e;" x="416.945455" xlink:href="#meaa14907c0" y="286.343862"/>
     <use style="fill:#ff7f0e;stroke:#ff7f0e;" x="430.472727" xlink:href="#meaa14907c0" y="282.512478"/>
     <use style="fill:#ff7f0e;stroke:#ff7f0e;" x="444" xlink:href="#meaa14907c0" y="289.313164"/>
     <use style="fill:#ff7f0e;stroke:#ff7f0e;" x="457.527273" xlink:href="#meaa14907c0" y="273.447911"/>
     <use style="fill:#ff7f0e;stroke:#ff7f0e;" x="471.054545" xlink:href="#meaa14907c0" y="321.996394"/>
     <use style="fill:#ff7f0e;stroke:#ff7f0e;" x="484.581818" xlink:href="#meaa14907c0" y="293.565945"/>
     <use style="fill:#ff7f0e;stroke:#ff7f0e;" x="498.109091" xlink:href="#meaa14907c0" y="343.051278"/>
    </g>
   </g>
   <g id="line2d_40">
    <path clip-path="url(#pa106cd7025)" d="M 105.818182 282.082884 
L 119.345455 297.100175 
L 132.872727 286.720535 
L 146.4 285.928124 
L 159.927273 268.189652 
L 173.454545 250.737049 
L 186.981818 290.460217 
L 200.509091 296.821372 
L 214.036364 283.657745 
L 227.563636 301.245826 
L 241.090909 320.515499 
L 254.618182 324.910156 
L 268.145455 322.904095 
L 281.672727 319.805406 
L 295.2 353.154904 
L 308.727273 346.376527 
L 322.254545 362.817349 
L 335.781818 347.782439 
L 349.309091 306.188301 
L 362.836364 282.674929 
L 376.363636 269.737258 
L 389.890909 298.634838 
L 403.418182 266.009672 
L 416.945455 264.638731 
L 430.472727 275.942261 
L 444 282.759594 
L 457.527273 285.038947 
L 471.054545 278.19593 
L 484.581818 305.523825 
L 498.109091 296.280452 
" style="fill:none;stroke:#2ca02c;stroke-linecap:square;stroke-width:1.5;"/>
    <g clip-path="url(#pa106cd7025)">
     <use style="fill:#2ca02c;stroke:#2ca02c;" x="105.818182" xlink:href="#mf4f3a7a0fe" y="282.082884"/>
     <use style="fill:#2ca02c;stroke:#2ca02c;" x="119.345455" xlink:href="#mf4f3a7a0fe" y="297.100175"/>
     <use style="fill:#2ca02c;stroke:#2ca02c;" x="132.872727" xlink:href="#mf4f3a7a0fe" y="286.720535"/>
     <use style="fill:#2ca02c;stroke:#2ca02c;" x="146.4" xlink:href="#mf4f3a7a0fe" y="285.928124"/>
     <use style="fill:#2ca02c;stroke:#2ca02c;" x="159.927273" xlink:href="#mf4f3a7a0fe" y="268.189652"/>
     <use style="fill:#2ca02c;stroke:#2ca02c;" x="173.454545" xlink:href="#mf4f3a7a0fe" y="250.737049"/>
     <use style="fill:#2ca02c;stroke:#2ca02c;" x="186.981818" xlink:href="#mf4f3a7a0fe" y="290.460217"/>
     <use style="fill:#2ca02c;stroke:#2ca02c;" x="200.509091" xlink:href="#mf4f3a7a0fe" y="296.821372"/>
     <use style="fill:#2ca02c;stroke:#2ca02c;" x="214.036364" xlink:href="#mf4f3a7a0fe" y="283.657745"/>
     <use style="fill:#2ca02c;stroke:#2ca02c;" x="227.563636" xlink:href="#mf4f3a7a0fe" y="301.245826"/>
     <use style="fill:#2ca02c;stroke:#2ca02c;" x="241.090909" xlink:href="#mf4f3a7a0fe" y="320.515499"/>
     <use style="fill:#2ca02c;stroke:#2ca02c;" x="254.618182" xlink:href="#mf4f3a7a0fe" y="324.910156"/>
     <use style="fill:#2ca02c;stroke:#2ca02c;" x="268.145455" xlink:href="#mf4f3a7a0fe" y="322.904095"/>
     <use style="fill:#2ca02c;stroke:#2ca02c;" x="281.672727" xlink:href="#mf4f3a7a0fe" y="319.805406"/>
     <use style="fill:#2ca02c;stroke:#2ca02c;" x="295.2" xlink:href="#mf4f3a7a0fe" y="353.154904"/>
     <use style="fill:#2ca02c;stroke:#2ca02c;" x="308.727273" xlink:href="#mf4f3a7a0fe" y="346.376527"/>
     <use style="fill:#2ca02c;stroke:#2ca02c;" x="322.254545" xlink:href="#mf4f3a7a0fe" y="362.817349"/>
     <use style="fill:#2ca02c;stroke:#2ca02c;" x="335.781818" xlink:href="#mf4f3a7a0fe" y="347.782439"/>
     <use style="fill:#2ca02c;stroke:#2ca02c;" x="349.309091" xlink:href="#mf4f3a7a0fe" y="306.188301"/>
     <use style="fill:#2ca02c;stroke:#2ca02c;" x="362.836364" xlink:href="#mf4f3a7a0fe" y="282.674929"/>
     <use style="fill:#2ca02c;stroke:#2ca02c;" x="376.363636" xlink:href="#mf4f3a7a0fe" y="269.737258"/>
     <use style="fill:#2ca02c;stroke:#2ca02c;" x="389.890909" xlink:href="#mf4f3a7a0fe" y="298.634838"/>
     <use style="fill:#2ca02c;stroke:#2ca02c;" x="403.418182" xlink:href="#mf4f3a7a0fe" y="266.009672"/>
     <use style="fill:#2ca02c;stroke:#2ca02c;" x="416.945455" xlink:href="#mf4f3a7a0fe" y="264.638731"/>
     <use style="fill:#2ca02c;stroke:#2ca02c;" x="430.472727" xlink:href="#mf4f3a7a0fe" y="275.942261"/>
     <use style="fill:#2ca02c;stroke:#2ca02c;" x="444" xlink:href="#mf4f3a7a0fe" y="282.759594"/>
     <use style="fill:#2ca02c;stroke:#2ca02c;" x="457.527273" xlink:href="#mf4f3a7a0fe" y="285.038947"/>
     <use style="fill:#2ca02c;stroke:#2ca02c;" x="471.054545" xlink:href="#mf4f3a7a0fe" y="278.19593"/>
     <use style="fill:#2ca02c;stroke:#2ca02c;" x="484.581818" xlink:href="#mf4f3a7a0fe" y="305.523825"/>
     <use style="fill:#2ca02c;stroke:#2ca02c;" x="498.109091" xlink:href="#mf4f3a7a0fe" y="296.280452"/>
    </g>
   </g>
   <g id="line2d_41">
    <path clip-path="url(#pa106cd7025)" d="M 92.290909 282.082884 
L 105.818182 297.100175 
L 119.345455 286.720535 
L 132.872727 285.928124 
L 146.4 268.189652 
L 159.927273 250.737049 
L 173.454545 290.460217 
L 186.981818 296.821372 
L 200.509091 283.657745 
L 214.036364 301.245826 
L 227.563636 320.515499 
L 241.090909 324.910156 
L 254.618182 322.904095 
L 268.145455 319.805406 
L 281.672727 353.154904 
L 295.2 346.376527 
L 308.727273 362.817349 
L 322.254545 347.782439 
L 335.781818 306.188301 
L 349.309091 282.674929 
L 362.836364 269.737258 
L 376.363636 298.634838 
L 389.890909 266.009672 
L 403.418182 264.638731 
L 416.945455 275.942261 
L 430.472727 282.759594 
L 444 285.038947 
L 457.527273 278.19593 
L 471.054545 305.523825 
L 484.581818 296.280452 
L 498.109091 321.461786 
" style="fill:none;stroke:#d62728;stroke-linecap:square;stroke-width:1.5;"/>
    <g clip-path="url(#pa106cd7025)">
     <use style="fill:#d62728;stroke:#d62728;" x="92.290909" xlink:href="#m16f20d5696" y="282.082884"/>
     <use style="fill:#d62728;stroke:#d62728;" x="105.818182" xlink:href="#m16f20d5696" y="297.100175"/>
     <use style="fill:#d62728;stroke:#d62728;" x="119.345455" xlink:href="#m16f20d5696" y="286.720535"/>
     <use style="fill:#d62728;stroke:#d62728;" x="132.872727" xlink:href="#m16f20d5696" y="285.928124"/>
     <use style="fill:#d62728;stroke:#d62728;" x="146.4" xlink:href="#m16f20d5696" y="268.189652"/>
     <use style="fill:#d62728;stroke:#d62728;" x="159.927273" xlink:href="#m16f20d5696" y="250.737049"/>
     <use style="fill:#d62728;stroke:#d62728;" x="173.454545" xlink:href="#m16f20d5696" y="290.460217"/>
     <use style="fill:#d62728;stroke:#d62728;" x="186.981818" xlink:href="#m16f20d5696" y="296.821372"/>
     <use style="fill:#d62728;stroke:#d62728;" x="200.509091" xlink:href="#m16f20d5696" y="283.657745"/>
     <use style="fill:#d62728;stroke:#d62728;" x="214.036364" xlink:href="#m16f20d5696" y="301.245826"/>
     <use style="fill:#d62728;stroke:#d62728;" x="227.563636" xlink:href="#m16f20d5696" y="320.515499"/>
     <use style="fill:#d62728;stroke:#d62728;" x="241.090909" xlink:href="#m16f20d5696" y="324.910156"/>
     <use style="fill:#d62728;stroke:#d62728;" x="254.618182" xlink:href="#m16f20d5696" y="322.904095"/>
     <use style="fill:#d62728;stroke:#d62728;" x="268.145455" xlink:href="#m16f20d5696" y="319.805406"/>
     <use style="fill:#d62728;stroke:#d62728;" x="281.672727" xlink:href="#m16f20d5696" y="353.154904"/>
     <use style="fill:#d62728;stroke:#d62728;" x="295.2" xlink:href="#m16f20d5696" y="346.376527"/>
     <use style="fill:#d62728;stroke:#d62728;" x="308.727273" xlink:href="#m16f20d5696" y="362.817349"/>
     <use style="fill:#d62728;stroke:#d62728;" x="322.254545" xlink:href="#m16f20d5696" y="347.782439"/>
     <use style="fill:#d62728;stroke:#d62728;" x="335.781818" xlink:href="#m16f20d5696" y="306.188301"/>
     <use style="fill:#d62728;stroke:#d62728;" x="349.309091" xlink:href="#m16f20d5696" y="282.674929"/>
     <use style="fill:#d62728;stroke:#d62728;" x="362.836364" xlink:href="#m16f20d5696" y="269.737258"/>
     <use style="fill:#d62728;stroke:#d62728;" x="376.363636" xlink:href="#m16f20d5696" y="298.634838"/>
     <use style="fill:#d62728;stroke:#d62728;" x="389.890909" xlink:href="#m16f20d5696" y="266.009672"/>
     <use style="fill:#d62728;stroke:#d62728;" x="403.418182" xlink:href="#m16f20d5696" y="264.638731"/>
     <use style="fill:#d62728;stroke:#d62728;" x="416.945455" xlink:href="#m16f20d5696" y="275.942261"/>
     <use style="fill:#d62728;stroke:#d62728;" x="430.472727" xlink:href="#m16f20d5696" y="282.759594"/>
     <use style="fill:#d62728;stroke:#d62728;" x="444" xlink:href="#m16f20d5696" y="285.038947"/>
     <use style="fill:#d62728;stroke:#d62728;" x="457.527273" xlink:href="#m16f20d5696" y="278.19593"/>
     <use style="fill:#d62728;stroke:#d62728;" x="471.054545" xlink:href="#m16f20d5696" y="305.523825"/>
     <use style="fill:#d62728;stroke:#d62728;" x="484.581818" xlink:href="#m16f20d5696" y="296.280452"/>
     <use style="fill:#d62728;stroke:#d62728;" x="498.109091" xlink:href="#m16f20d5696" y="321.461786"/>
    </g>
   </g>
   <g id="patch_9">
    <path d="M 72 384.48 
L 72 233.28 
" style="fill:none;stroke:#000000;stroke-linecap:square;stroke-linejoin:miter;stroke-width:0.8;"/>
   </g>
   <g id="patch_10">
    <path d="M 518.4 384.48 
L 518.4 233.28 
" style="fill:none;stroke:#000000;stroke-linecap:square;stroke-linejoin:miter;stroke-width:0.8;"/>
   </g>
   <g id="patch_11">
    <path d="M 72 384.48 
L 518.4 384.48 
" style="fill:none;stroke:#000000;stroke-linecap:square;stroke-linejoin:miter;stroke-width:0.8;"/>
   </g>
   <g id="patch_12">
    <path d="M 72 233.28 
L 518.4 233.28 
" style="fill:none;stroke:#000000;stroke-linecap:square;stroke-linejoin:miter;stroke-width:0.8;"/>
   </g>
   <g id="legend_2">
    <g id="patch_13">
     <path d="M 79 379.48 
L 155.1875 379.48 
Q 157.1875 379.48 157.1875 377.48 
L 157.1875 319.7675 
Q 157.1875 317.7675 155.1875 317.7675 
L 79 317.7675 
Q 77 317.7675 77 319.7675 
L 77 377.48 
Q 77 379.48 79 379.48 
z
" style="fill:#ffffff;opacity:0.8;stroke:#cccccc;stroke-linejoin:miter;"/>
    </g>
    <g id="line2d_42">
     <path d="M 81 325.865937 
L 101 325.865937 
" style="fill:none;stroke:#1f77b4;stroke-linecap:square;stroke-width:1.5;"/>
    </g>
    <g id="line2d_43">
     <g>
      <use style="fill:#1f77b4;stroke:#1f77b4;" x="91" xlink:href="#m5181a508da" y="325.865937"/>
     </g>
    </g>
    <g id="text_34">
     <!-- Real -->
     <g transform="translate(109 329.365937)scale(0.1 -0.1)">
      <use xlink:href="#DejaVuSans-52"/>
      <use x="64.982422" xlink:href="#DejaVuSans-65"/>
      <use x="126.505859" xlink:href="#DejaVuSans-61"/>
      <use x="187.785156" xlink:href="#DejaVuSans-6c"/>
     </g>
    </g>
    <g id="line2d_44">
     <path d="M 81 340.544062 
L 101 340.544062 
" style="fill:none;stroke:#ff7f0e;stroke-linecap:square;stroke-width:1.5;"/>
    </g>
    <g id="line2d_45">
     <g>
      <use style="fill:#ff7f0e;stroke:#ff7f0e;" x="91" xlink:href="#meaa14907c0" y="340.544062"/>
     </g>
    </g>
    <g id="text_35">
     <!-- Measure -->
     <g transform="translate(109 344.044062)scale(0.1 -0.1)">
      <use xlink:href="#DejaVuSans-4d"/>
      <use x="86.279297" xlink:href="#DejaVuSans-65"/>
      <use x="147.802734" xlink:href="#DejaVuSans-61"/>
      <use x="209.082031" xlink:href="#DejaVuSans-73"/>
      <use x="261.181641" xlink:href="#DejaVuSans-75"/>
      <use x="324.560547" xlink:href="#DejaVuSans-72"/>
      <use x="363.423828" xlink:href="#DejaVuSans-65"/>
     </g>
    </g>
    <g id="line2d_46">
     <path d="M 81 355.222188 
L 101 355.222188 
" style="fill:none;stroke:#2ca02c;stroke-linecap:square;stroke-width:1.5;"/>
    </g>
    <g id="line2d_47">
     <g>
      <use style="fill:#2ca02c;stroke:#2ca02c;" x="91" xlink:href="#mf4f3a7a0fe" y="355.222188"/>
     </g>
    </g>
    <g id="text_36">
     <!-- Prior -->
     <g transform="translate(109 358.722188)scale(0.1 -0.1)">
      <use xlink:href="#DejaVuSans-50"/>
      <use x="58.552734" xlink:href="#DejaVuSans-72"/>
      <use x="99.666016" xlink:href="#DejaVuSans-69"/>
      <use x="127.449219" xlink:href="#DejaVuSans-6f"/>
      <use x="188.630859" xlink:href="#DejaVuSans-72"/>
     </g>
    </g>
    <g id="line2d_48">
     <path d="M 81 369.900312 
L 101 369.900312 
" style="fill:none;stroke:#d62728;stroke-linecap:square;stroke-width:1.5;"/>
    </g>
    <g id="line2d_49">
     <g>
      <use style="fill:#d62728;stroke:#d62728;" x="91" xlink:href="#m16f20d5696" y="369.900312"/>
     </g>
    </g>
    <g id="text_37">
     <!-- Posterior -->
     <g transform="translate(109 373.400312)scale(0.1 -0.1)">
      <use xlink:href="#DejaVuSans-50"/>
      <use x="56.677734" xlink:href="#DejaVuSans-6f"/>
      <use x="117.859375" xlink:href="#DejaVuSans-73"/>
      <use x="169.958984" xlink:href="#DejaVuSans-74"/>
      <use x="209.167969" xlink:href="#DejaVuSans-65"/>
      <use x="270.691406" xlink:href="#DejaVuSans-72"/>
      <use x="311.804688" xlink:href="#DejaVuSans-69"/>
      <use x="339.587891" xlink:href="#DejaVuSans-6f"/>
      <use x="400.769531" xlink:href="#DejaVuSans-72"/>
     </g>
    </g>
   </g>
  </g>
 </g>
 <defs>
  <clipPath id="p21f4cb3f29">
   <rect height="151.2" width="446.4" x="72" y="51.84"/>
  </clipPath>
  <clipPath id="pa106cd7025">
   <rect height="151.2" width="446.4" x="72" y="233.28"/>
  </clipPath>
 </defs>
</svg>
